<svg xmlns="http://www.w3.org/2000/svg" version="1.1" xmlns:xlink="http://www.w3.org/1999/xlink" xmlns:svgjs="http://svgjs.dev/svgjs" width="2000" height="722" viewBox="0 0 2000 722"><g transform="matrix(1,0,0,1,-1.2121212121212466,0.49859076467095065)"><svg viewBox="0 0 396 143" data-background-color="#636365" preserveAspectRatio="xMidYMid meet" height="722" width="2000" xmlns="http://www.w3.org/2000/svg" xmlns:xlink="http://www.w3.org/1999/xlink"><g id="tight-bounds" transform="matrix(1,0,0,1,0.2400000000000091,-0.09842748125694811)"><svg viewBox="0 0 395.52 143.1971788376945" height="143.1971788376945" width="395.52"><g><svg viewBox="0 0 675.1354481416018 244.43135999999998" height="143.1971788376945" width="395.52"><g transform="matrix(1,0,0,1,279.61544814160186,66.95044896827412)"><svg viewBox="0 0 395.52 110.53046206345175" height="110.53046206345175" width="395.52"><g id="textblocktransform"><svg viewBox="0 0 395.52 110.53046206345175" height="110.53046206345175" width="395.52" id="textblock"><g><svg viewBox="0 0 395.52 59.61484969518604" height="59.61484969518604" width="395.52"><g transform="matrix(1,0,0,1,0,0)"><svg width="395.52" viewBox="3.49 -35.01 232.26 35.01" height="59.61484969518604" data-palette-color="#ffffff"><path d="M3.49-5L3.49-11.01 8.5-11.01 8.5-5 22.66-5 22.66-35.01 27.66-35.01 27.66-5Q27.66-3.98 27.26-3.06 26.86-2.15 26.18-1.46 25.51-0.78 24.6-0.39 23.68 0 22.66 0L22.66 0 8.5 0Q7.47 0 6.56-0.39 5.64-0.78 4.97-1.46 4.3-2.15 3.89-3.06 3.49-3.98 3.49-5L3.49-5ZM36.15-4.81L36.15-11.35Q36.15-12.35 36.53-13.22 36.91-14.09 37.56-14.75 38.21-15.41 39.08-15.78 39.96-16.16 40.94-16.16L40.94-16.16 53.34-16.16 53.34-21.19 37.64-21.19 37.64-26 53.34-26Q54.34-26 55.22-25.62 56.1-25.24 56.75-24.6 57.39-23.95 57.77-23.07 58.15-22.19 58.15-21.19L58.15-21.19 58.15 0 53.34 0 53.34-4.39Q53.27-3.49 52.85-2.69 52.44-1.88 51.79-1.28 51.14-0.68 50.31-0.34 49.48 0 48.56 0L48.56 0 40.94 0Q39.96 0 39.08-0.38 38.21-0.76 37.56-1.4 36.91-2.05 36.53-2.93 36.15-3.81 36.15-4.81L36.15-4.81ZM40.94-11.35L40.94-4.81 53.34-4.81 53.34-11.35 40.94-11.35ZM78.56 0L73.55 0 63.15-26 68.16-26 76.04-5.76 83.95-26 88.96-26 78.56 0ZM116.45-14.99L99.46-14.99Q98.43-14.99 97.51-15.39 96.6-15.8 95.92-16.47 95.23-17.14 94.84-18.05 94.45-18.97 94.45-20L94.45-20 94.45-30Q94.45-31.03 94.84-31.95 95.23-32.86 95.92-33.53 96.6-34.2 97.51-34.61 98.43-35.01 99.46-35.01L99.46-35.01 116.45-35.01Q117.47-35.01 118.39-34.61 119.3-34.2 119.99-33.53 120.67-32.86 121.06-31.95 121.45-31.03 121.45-30L121.45-30 121.45-25.49 116.45-25.49 116.45-30 99.46-30 99.46-20 116.45-20Q117.47-20 118.39-19.6 119.3-19.21 119.99-18.53 120.67-17.85 121.06-16.93 121.45-16.02 121.45-14.99L121.45-14.99 121.45-5Q121.45-3.98 121.06-3.06 120.67-2.15 119.99-1.46 119.3-0.78 118.39-0.39 117.47 0 116.45 0L116.45 0 98.97 0Q97.94 0 97.03-0.39 96.11-0.78 95.43-1.46 94.74-2.15 94.35-3.06 93.96-3.98 93.96-5L93.96-5 93.96-9.5 98.97-9.5 98.97-5 116.45-5 116.45-14.99ZM128.46-21.19L128.46-26 134.8-26 134.8-34.01 139.61-34.01 139.61-26 148.16-26 148.16-21.19 139.61-21.19 139.61-4.81 148.16-4.81 148.16 0 139.61 0Q138.64 0 137.76-0.38 136.88-0.76 136.22-1.4 135.56-2.05 135.18-2.93 134.8-3.81 134.8-4.81L134.8-4.81 134.8-21.19 128.46-21.19ZM170.86-21.19L160.95-21.19 160.95 0 156.16 0 156.16-26 160.95-26 160.95-21.41Q161-22.36 161.39-23.21 161.78-24.05 162.43-24.67 163.07-25.29 163.93-25.65 164.78-26 165.76-26L165.76-26 170.86-26Q171.86-26 172.73-25.62 173.6-25.24 174.26-24.6 174.91-23.95 175.29-23.07 175.67-22.19 175.67-21.19L175.67-21.19 175.67-16.8 170.86-16.8 170.86-21.19ZM181.65-4.81L181.65-26 186.44-26 186.44-4.81 199.84-4.81 199.84-26 204.65-26 204.65 0 199.84 0 199.84-4.39Q199.77-3.49 199.35-2.69 198.94-1.88 198.29-1.28 197.64-0.68 196.81-0.34 195.98 0 195.05 0L195.05 0 186.44 0Q185.46 0 184.58-0.38 183.7-0.76 183.05-1.4 182.41-2.05 182.03-2.93 181.65-3.81 181.65-4.81L181.65-4.81ZM229.5-26L235.31-26 225.86-13.31 235.75 0 229.94 0 222.96-9.4 215.95 0 210.14 0 220.05-13.31 210.6-26 216.39-26 222.96-17.21 229.5-26Z" opacity="1" transform="matrix(1,0,0,1,0,0)" fill="#000000" class="wordmark-text-0" data-fill-palette-color="primary" id="text-0"></path></svg></g></svg></g><g transform="matrix(1,0,0,1,0,73.68848495182678)"><svg viewBox="0 0 133.5546196732437 36.84197711162497" height="36.84197711162497" width="133.5546196732437"><g transform="matrix(1,0,0,1,0,0)"><svg width="133.5546196732437" viewBox="1.8908334000119997 -34.8 166.189166599988 45.849999999999994" height="36.84197711162497" data-palette-color="#ffffff"><path d="M10.95 0.8L10.95 0.8Q10.55 0.8 9.33 0.53 8.1 0.25 6.58-0.23 5.05-0.7 3.75-1.2L3.75-1.2 6.8-5.25Q8.15-4.35 9.4-3.85 10.65-3.35 11.73-3.15 12.8-2.95 13.7-2.95L13.7-2.95Q15.4-2.95 16.7-4.33 18-5.7 18.75-8.15 19.5-10.6 19.5-13.7L19.5-13.7Q19.5-16.6 19.07-18.1 18.65-19.6 17.7-19.6L17.7-19.6Q17.25-19.6 16.2-18.88 15.15-18.15 13.7-16.38 12.25-14.6 10.53-11.55 8.8-8.5 6.95-3.85L6.95-3.85 5.45-8.3Q8.25-14.65 10.83-18.15 13.4-21.65 15.7-23.08 18-24.5 19.95-24.5L19.95-24.5Q22.75-24.5 23.95-22.15 25.15-19.8 25.15-15.85L25.15-15.85Q25.15-11 23.43-7.25 21.7-3.5 18.53-1.35 15.35 0.8 10.95 0.8ZM7.4-1.7L10.95 0.8Q7.9 0.8 5.83 0.25 3.75-0.3 2.78-1.25 1.8-2.2 1.9-3.4L1.9-3.4 5.4-34.8 8.9-34.8Q9.65-34.8 10.25-33.7 10.85-32.6 10.85-31.2L10.85-31.2Q10.85-29.5 10.63-28.1 10.4-26.7 9.9-24.5L9.9-24.5 6.4-9.45 7.4-1.7ZM32.65 0.65L32.65 0.65Q30.7 0.65 29.62-0.43 28.55-1.5 28.55-3.65L28.55-3.65Q28.55-4.4 28.57-5.15 28.6-5.9 28.72-6.95 28.85-8 29.05-9.65L29.05-9.65 30.95-24.55 34.45-24.55Q35.3-24.55 35.57-23.58 35.85-22.6 35.85-21.2L35.85-21.2Q35.85-20.15 35.7-18.45 35.55-16.75 35.25-14.7L35.25-14.7 34.65-10.6Q34.45-9.2 34.37-8.1 34.3-7 34.3-6.3L34.3-6.3Q34.3-5.3 34.52-4.78 34.75-4.25 35.4-4.25L35.4-4.25Q36.15-4.25 37.3-5.35 38.45-6.45 39.72-8.25 41-10.05 42.1-12.13 43.2-14.2 43.9-16.15 44.6-18.1 44.6-19.5L44.6-19.5Q44.6-20.65 44.32-21.43 44.05-22.2 44.1-22.7L44.1-22.7Q44.1-23.15 44.67-23.5 45.25-23.85 46.05-24.08 46.85-24.3 47.65-24.43 48.45-24.55 48.9-24.55L48.9-24.55Q49.75-24.55 50.22-23.55 50.7-22.55 50.5-20.7L50.5-20.7 48.15 0.5 44.65 0.5Q44.05 0.5 43.7-0.13 43.35-0.75 43.22-1.55 43.1-2.35 43.1-2.75L43.1-2.75Q43.1-3.9 43.42-5.25 43.75-6.6 44.37-8.7 45-10.8 45.9-14.1L45.9-14.1 45.9-13.25Q43.95-8.15 41.6-5.1 39.25-2.05 36.95-0.7 34.65 0.65 32.65 0.65ZM59.55 0.8L56.05 0.8Q55.2 0.8 54.95-0.18 54.7-1.15 54.7-2.2L54.7-2.2Q54.7-4 54.87-5.4 55.05-6.8 55.25-8.5L55.25-8.5 57.05-24.55 60.55-24.55Q61.55-24.55 61.85-23.45 62.15-22.35 62.15-20.95L62.15-20.95Q62.15-20.25 62.05-19.48 61.95-18.7 61.75-17.1L61.75-17.1 60.8-8.95Q60.5-6.35 60.25-4.6 60-2.85 59.85-1.6 59.7-0.35 59.55 0.8L59.55 0.8ZM60.45-27.4L60.45-27.4Q59.05-27.4 58.02-28.35 57-29.3 57-30.85L57-30.85Q57-32.7 58.2-33.73 59.4-34.75 60.95-34.75L60.95-34.75Q62.4-34.75 63.37-33.9 64.34-33.05 64.34-31.35L64.34-31.35Q64.34-29.65 63.2-28.53 62.05-27.4 60.45-27.4ZM71.79 0.7L68.29 0.7Q67.39 0.7 66.89-0.4 66.39-1.5 66.44-2.95L66.44-2.95Q66.49-4.65 66.74-7 66.99-9.35 67.24-11.65L67.24-11.65 68.64-23.45Q68.94-25.7 68.79-27.45 68.64-29.2 68.39-30.55 68.14-31.9 68.14-32.85L68.14-32.85Q68.14-33.4 69.02-33.83 69.89-34.25 71.04-34.52 72.19-34.8 72.99-34.8L72.99-34.8Q73.84-34.8 74.49-33.58 75.14-32.35 75.14-30.75L75.14-30.75Q75.14-30.4 75.04-28.8 74.94-27.2 74.64-25.15L74.64-25.15 73.04-13.65Q72.54-10.05 72.34-6.48 72.14-2.9 71.79 0.7L71.79 0.7ZM82.74 0.8L82.74 0.8Q80.04 0.8 78.87-1.4 77.69-3.6 77.69-7.85L77.69-7.85Q77.69-11.5 78.72-14.55 79.74-17.6 81.59-19.83 83.44-22.05 85.89-23.28 88.34-24.5 91.19-24.5L91.19-24.5Q92.94-24.5 94.67-23.93 96.39-23.35 97.64-22.75L97.64-22.75 96.04-17.85Q94.69-18.75 93.22-19.4 91.74-20.05 90.52-20.4 89.29-20.75 88.64-20.75L88.64-20.75Q87.19-20.75 85.99-19.38 84.79-18 84.07-15.58 83.34-13.15 83.34-10L83.34-10Q83.34-7.1 83.77-5.6 84.19-4.1 85.14-4.1L85.14-4.1Q85.94-4.1 87.62-5.58 89.29-7.05 91.52-10.5 93.74-13.95 96.19-19.85L96.19-19.85 97.64-15.4Q94.99-9.4 92.39-5.85 89.79-2.3 87.37-0.75 84.94 0.8 82.74 0.8ZM99.44 0.5L95.94 0.5Q95.39 0.5 94.99-0.13 94.59-0.75 94.39-1.65 94.19-2.55 94.19-3.3L94.19-3.3Q94.19-4.55 94.62-6.15 95.04-7.75 95.69-10.2L95.69-10.2 96.69-13.95 95.24-15.55 95.79-20.8 96.49-21.65 96.89-34.8 100.79-34.8Q101.54-34.8 102.02-34.15 102.49-33.5 102.72-32.63 102.94-31.75 102.94-30.95L102.94-30.95Q102.94-30.45 102.89-29.83 102.84-29.2 102.69-28.13 102.54-27.05 102.24-25.15L102.24-25.15 100.59-13.65Q100.24-11.25 99.99-8.75 99.74-6.25 99.62-3.9 99.49-1.55 99.44 0.5L99.44 0.5ZM110.94 0.8L107.44 0.8Q106.59 0.8 106.34-0.18 106.09-1.15 106.09-2.2L106.09-2.2Q106.09-4 106.26-5.4 106.44-6.8 106.64-8.5L106.64-8.5 108.44-24.55 111.94-24.55Q112.94-24.55 113.24-23.45 113.54-22.35 113.54-20.95L113.54-20.95Q113.54-20.25 113.44-19.48 113.34-18.7 113.14-17.1L113.14-17.1 112.19-8.95Q111.89-6.35 111.64-4.6 111.39-2.85 111.24-1.6 111.09-0.35 110.94 0.8L110.94 0.8ZM111.84-27.4L111.84-27.4Q110.44-27.4 109.41-28.35 108.39-29.3 108.39-30.85L108.39-30.85Q108.39-32.7 109.59-33.73 110.79-34.75 112.34-34.75L112.34-34.75Q113.79-34.75 114.76-33.9 115.74-33.05 115.74-31.35L115.74-31.35Q115.74-29.65 114.59-28.53 113.44-27.4 111.84-27.4ZM137.29 0.5L133.74 0.5Q133.19 0.5 132.91-0.03 132.64-0.55 132.56-1.2 132.49-1.85 132.49-2.25L132.49-2.25Q132.49-2.95 132.59-4.05 132.69-5.15 132.84-6.38 132.99-7.6 133.14-8.5L133.14-8.5 133.99-13.7Q134.14-14.7 134.29-15.58 134.44-16.45 134.44-17.45L134.44-17.45Q134.44-18.2 134.14-18.6 133.84-19 133.34-19L133.34-19Q132.69-19 131.19-17.75 129.69-16.5 127.99-14.18 126.29-11.85 124.91-8.6 123.54-5.35 123.14-1.35L123.14-1.35 121.84-8.75Q123.34-13.1 125.21-16.1 127.09-19.1 129.04-20.95 130.99-22.8 132.81-23.65 134.64-24.5 136.04-24.5L136.04-24.5Q137.54-24.5 138.46-23.95 139.39-23.4 139.81-22.43 140.24-21.45 140.24-20.15L140.24-20.15Q140.24-18.9 140.06-17.68 139.89-16.45 139.69-15.15L139.69-15.15 137.29 0.5ZM118.79 0.7L118.79 0.7Q118.14 0.7 117.81 0.48 117.49 0.25 117.46-0.7 117.44-1.65 117.69-3.75L117.69-3.75 120.04-24.55 123.54-24.55Q124.29-24.55 124.89-23.45 125.49-22.35 125.49-20.95L125.49-20.95Q125.49-20.3 125.11-18.93 124.74-17.55 124.24-16.03 123.74-14.5 123.34-13.35L123.34-13.35 122.04-9.25 123.89-9.55 123.09-1.35Q123.04-0.85 122.49-0.45 121.94-0.05 121.19 0.2 120.44 0.45 119.76 0.58 119.09 0.7 118.79 0.7ZM151.88 11.05L151.88 11.05Q149.48 11.05 147.51 10.33 145.53 9.6 144.36 8.05 143.18 6.5 143.18 4L143.18 4Q143.18 3.15 143.73 3.15L143.73 3.15Q143.98 3.15 144.38 3.35 144.78 3.55 145.43 3.9L145.43 3.9Q146.33 4.4 147.86 5.18 149.38 5.95 151.03 6.55 152.68 7.15 153.93 7.15L153.93 7.15Q154.73 7.15 155.46 6.8 156.18 6.45 156.86 5.48 157.53 4.5 158.13 2.68 158.73 0.85 159.28-2.1L159.28-2.1 161.78-15.65 160.88-16.85 160.93-23.25Q164.13-23.65 165.58-24.05 167.03-24.45 167.58-24.45L167.58-24.45Q168.08-24.45 168.08-23.85L168.08-23.85Q168.08-23.6 167.46-21.75 166.83-19.9 166.13-17 165.43-14.1 165.28-10.5L165.28-10.5 164.93-1.5Q164.78 2 163.56 4.4 162.33 6.8 160.38 8.28 158.43 9.75 156.21 10.4 153.98 11.05 151.88 11.05ZM148.73 0.45L148.73 0.45Q145.93 0.45 144.73-1.83 143.53-4.1 143.53-8.2L143.53-8.2Q143.53-11.65 144.58-14.63 145.63-17.6 147.46-19.8 149.28-22 151.71-23.25 154.13-24.5 156.88-24.5L156.88-24.5Q159.03-24.5 160.81-23.93 162.58-23.35 163.83-22.75L163.83-22.75 162.38-17.5Q161.03-18.4 159.36-19.15 157.68-19.9 156.26-20.33 154.83-20.75 154.13-20.75L154.13-20.75Q152.73-20.75 151.61-19.35 150.48-17.95 149.83-15.6 149.18-13.25 149.18-10.35L149.18-10.35Q149.18-7.45 149.61-5.95 150.03-4.45 150.98-4.45L150.98-4.45Q151.63-4.45 153.16-5.85 154.68-7.25 156.83-10.6 158.98-13.95 161.43-19.85L161.43-19.85 162.83-15.4Q160.13-9.4 157.71-5.93 155.28-2.45 153.08-1 150.88 0.45 148.73 0.45Z" opacity="1" transform="matrix(1,0,0,1,0,0)" fill="#000000" class="slogan-text-1" data-fill-palette-color="secondary" id="text-1"></path></svg></g></svg></g></svg></g></svg></g><g><svg viewBox="0 0 244.43135999999998 244.43135999999998" height="244.43135999999998" width="244.43135999999998"><g><svg viewBox="0 0 244.43135999999998 244.43135999999998" height="244.43135999999998" width="244.43135999999998"><g transform="matrix(1,0,0,1,66.55041901688674,64.60265593644992)"><svg viewBox="0 0 111.33052196622653 115.22604812710014" height="115.22604812710014" width="111.33052196622653"><g><svg xmlns="http://www.w3.org/2000/svg" xmlns:xlink="http://www.w3.org/1999/xlink" version="1.0" x="0" y="0" viewBox="1.165 -0.03300000000000025 96.683 100.066" enable-background="new 0 0 100 100" xml:space="preserve" width="111.33052196622653" height="115.22604812710014" class="icon-cg-0" data-fill-palette-color="accent" id="cg-0"><path enable-background="new    " d="M1.266 44.426v0.114 0.356 21.37V89.47c0 5.812 4.792 10.563 10.653 10.563h8.305 15.453V78.286c0-5.68 2.906-8.585 8.717-8.585h10.301c5.678 0 8.585 2.905 8.585 8.585v21.746h15.608 8.307c5.859 0 10.653-4.753 10.653-10.563V66.264 44.896 44.54v-0.114c0-3.681 0-2.824 0-2.824V35.62c0-3.895-1.655-7.208-4.965-9.934L58.077 2.304c-3.929-3.116-13.114-3.116-17.043 0L6.23 25.686c-3.308 2.725-4.964 6.039-4.964 9.934l-0.101 7.164" fill="#000000" data-fill-palette-color="accent"></path></svg></g></svg></g><g id="text-0"><path d="M27.887 98.252l-5.113-1.904 1.585-4.257 5.113 1.904 4.488-12.053-25.539-9.509 1.588-4.266 25.54 9.51c0.577 0.215 1.084 0.535 1.52 0.958 0.436 0.424 0.776 0.897 1.02 1.419 0.248 0.531 0.384 1.094 0.41 1.691 0.029 0.605-0.065 1.199-0.282 1.782v0l-4.488 12.053c-0.215 0.577-0.531 1.085-0.949 1.524-0.412 0.441-0.883 0.778-1.416 1.01-0.526 0.235-1.093 0.371-1.7 0.407-0.607 0.036-1.199-0.054-1.777-0.269z" fill="#000000" data-fill-palette-color="accent"></path><path d="M43.939 66.296l-4.513-3.868c-0.463-0.397-0.82-0.851-1.071-1.362-0.247-0.517-0.394-1.053-0.441-1.608-0.052-0.56 0.01-1.117 0.189-1.671 0.169-0.553 0.445-1.054 0.829-1.502v0l7.328-8.55-3.464-2.969-9.275 10.822-3.32-2.846 9.274-10.822c0.397-0.463 0.856-0.82 1.377-1.072 0.52-0.261 1.056-0.413 1.607-0.455 0.551-0.042 1.104 0.025 1.658 0.204 0.553 0.169 1.062 0.452 1.525 0.848v0l14.61 12.522-2.846 3.32-3.034-2.6c0.392 0.388 0.692 0.837 0.901 1.348 0.203 0.506 0.316 1.026 0.338 1.56 0.022 0.534-0.052 1.059-0.224 1.575-0.172 0.516-0.441 0.988-0.807 1.415v0l-4.502 5.253c-0.384 0.448-0.836 0.797-1.357 1.049-0.52 0.261-1.056 0.413-1.607 0.455-0.551 0.042-1.106-0.023-1.665-0.196-0.549-0.174-1.053-0.457-1.51-0.85zM42.252 59.131l4.513 3.867 7.328-8.55-4.513-3.868z" fill="#000000" data-fill-palette-color="accent"></path><path d="M80.169 41.894l-3.98 2.187-19.657-16.142 3.989-2.193 15.122 12.659-2.553-19.566 3.989-2.193z" fill="#000000" data-fill-palette-color="accent"></path><path d="M115.511 17.979l-15.211 2.623c-0.614 0.106-1.216 0.085-1.806-0.062-0.582-0.142-1.114-0.379-1.595-0.713-0.474-0.328-0.875-0.747-1.205-1.254-0.329-0.501-0.546-1.059-0.651-1.673v0l-1.546-8.962c-0.106-0.614-0.088-1.212 0.054-1.795 0.14-0.589 0.379-1.118 0.715-1.585 0.342-0.476 0.763-0.878 1.264-1.207 0.507-0.336 1.067-0.557 1.681-0.663v0l15.211-2.623c0.607-0.105 1.206-0.084 1.796 0.064 0.589 0.14 1.121 0.378 1.595 0.713 0.48 0.327 0.882 0.746 1.205 1.255 0.329 0.501 0.546 1.059 0.652 1.673v0l0.697 4.045-4.476 0.771-0.697-4.045-15.211 2.623 1.545 8.962 15.211-2.623c0.607-0.105 1.205-0.087 1.794 0.054 0.588 0.134 1.12 0.372 1.596 0.713 0.481 0.334 0.883 0.755 1.206 1.265 0.329 0.501 0.546 1.059 0.652 1.672v0l1.542 8.943c0.105 0.607 0.087 1.205-0.054 1.794-0.134 0.588-0.372 1.12-0.713 1.596-0.334 0.481-0.755 0.883-1.264 1.206-0.508 0.33-1.066 0.547-1.673 0.651v0l-15.652 2.699c-0.607 0.105-1.205 0.087-1.794-0.053-0.588-0.134-1.12-0.372-1.595-0.713-0.481-0.334-0.883-0.755-1.207-1.265-0.33-0.508-0.547-1.066-0.651-1.673v0l-0.695-4.025 4.476-0.772 0.695 4.025 15.651-2.699z" fill="#000000" data-fill-palette-color="accent"></path><path d="M136.989 13.189l0.827-4.294 5.661 1.091 1.376-7.144 4.285 0.826-1.377 7.144 7.622 1.469-0.828 4.294-7.622-1.469-2.815 14.61 7.622 1.469-0.826 4.284-7.622-1.469c-0.579-0.112-1.107-0.331-1.583-0.659-0.484-0.323-0.885-0.714-1.202-1.173-0.316-0.459-0.538-0.974-0.663-1.545-0.121-0.563-0.124-1.141-0.011-1.733v0l2.816-14.61z" fill="#000000" data-fill-palette-color="accent"></path><path d="M183.37 30.109l-7.902-4.319-9.229 16.884-3.811-2.083 11.327-20.721 3.811 2.083-1.997 3.654c0.306-0.49 0.682-0.903 1.13-1.24 0.451-0.327 0.938-0.563 1.463-0.707 0.524-0.144 1.065-0.188 1.624-0.131 0.555 0.062 1.094 0.236 1.617 0.521v0l4.064 2.222c0.529 0.289 0.971 0.663 1.325 1.12 0.351 0.449 0.608 0.94 0.769 1.474 0.161 0.534 0.215 1.092 0.161 1.674-0.057 0.573-0.231 1.127-0.524 1.662v0l-1.911 3.497-3.829-2.093z" fill="#000000" data-fill-palette-color="accent"></path><path d="M188.921 53.458l14.071-13.139 2.964 3.175-14.071 13.139 8.31 8.899 14.071-13.139 2.977 3.189-17.26 16.116-2.978-3.189 2.921-2.726c-0.434 0.341-0.916 0.587-1.446 0.738-0.525 0.146-1.055 0.201-1.588 0.163-0.533-0.037-1.047-0.169-1.54-0.397-0.494-0.228-0.931-0.545-1.311-0.952v0l-5.345-5.724c-0.402-0.431-0.7-0.919-0.892-1.466-0.202-0.546-0.293-1.095-0.274-1.647 0.019-0.553 0.145-1.097 0.379-1.633 0.234-0.526 0.571-0.995 1.012-1.407z" fill="#000000" data-fill-palette-color="accent"></path><path d="M233.046 87.646l1.997 4.885-13.918-3.574-7.788 12.882-1.998-4.885 5.501-9.101-10.31-2.655-1.998-4.885 14.595 3.759 7.42-12.313 1.991 4.866-5.129 8.541z" fill="#000000" data-fill-palette-color="accent"></path><path d="M14.271 159.31l5.114-1.904 1.585 4.257-5.114 1.904 4.488 12.053 25.539-9.51 1.589 4.266-25.54 9.509c-0.577 0.215-1.17 0.305-1.777 0.27-0.607-0.036-1.174-0.171-1.699-0.407-0.535-0.239-1.006-0.576-1.416-1.01-0.418-0.438-0.735-0.949-0.953-1.534v0l-4.487-12.052c-0.215-0.577-0.308-1.169-0.279-1.773 0.023-0.603 0.16-1.166 0.41-1.691 0.244-0.522 0.584-0.995 1.02-1.419 0.436-0.424 0.943-0.743 1.52-0.959z" fill="#000000" data-fill-palette-color="accent"></path><path d="M32.635 195.884l4.513-3.868c0.463-0.397 0.966-0.68 1.51-0.849 0.548-0.165 1.101-0.228 1.657-0.19 0.561 0.034 1.102 0.181 1.622 0.442 0.521 0.252 0.973 0.601 1.358 1.049v0l7.327 8.55 3.464-2.968-9.274-10.822 3.32-2.846 9.275 10.822c0.397 0.463 0.679 0.971 0.848 1.524 0.174 0.549 0.242 1.102 0.204 1.658-0.047 0.556-0.199 1.091-0.455 1.608-0.252 0.521-0.609 0.98-1.072 1.376v0l-14.61 12.522-2.846-3.321 3.034-2.6c-0.443 0.328-0.933 0.555-1.469 0.684-0.531 0.124-1.062 0.156-1.594 0.095-0.531-0.06-1.038-0.214-1.522-0.462-0.484-0.249-0.909-0.587-1.275-1.015v0l-4.502-5.252c-0.384-0.448-0.66-0.948-0.829-1.502-0.178-0.554-0.246-1.107-0.203-1.658 0.042-0.551 0.192-1.09 0.448-1.615 0.256-0.516 0.613-0.97 1.071-1.362zM39.974 195.314l-4.513 3.868 7.328 8.55 4.513-3.868z" fill="#000000" data-fill-palette-color="accent"></path><path d="M68.796 231.293l-3.981-2.188 3.092-25.247 3.989 2.192-2.586 19.56 15.154-12.652 3.981 2.188z" fill="#000000" data-fill-palette-color="accent"></path><path d="M116.117 230.945l-15.201-2.621c-0.614-0.106-1.174-0.327-1.681-0.663-0.501-0.329-0.923-0.731-1.264-1.207-0.336-0.468-0.574-0.997-0.715-1.585-0.142-0.582-0.16-1.181-0.054-1.795v0l1.545-8.962c0.105-0.607 0.322-1.165 0.652-1.672 0.33-0.508 0.731-0.926 1.205-1.255 0.48-0.327 1.012-0.565 1.595-0.713 0.59-0.147 1.192-0.168 1.806-0.062v0l15.201 2.621c0.614 0.106 1.174 0.327 1.681 0.663 0.5 0.335 0.922 0.737 1.264 1.206 0.336 0.468 0.574 0.997 0.715 1.586 0.14 0.589 0.158 1.187 0.054 1.795v0l-0.698 4.045-4.486-0.774 0.698-4.045-15.201-2.621-1.545 8.962 15.201 2.621c0.614 0.106 1.175 0.324 1.682 0.653 0.503 0.322 0.924 0.724 1.265 1.207 0.335 0.475 0.573 1.006 0.713 1.595 0.14 0.589 0.158 1.187 0.054 1.794v0l-1.542 8.943c-0.105 0.607-0.322 1.165-0.652 1.672-0.33 0.508-0.732 0.929-1.206 1.265-0.482 0.34-1.014 0.578-1.596 0.713-0.589 0.14-1.19 0.158-1.804 0.052v0l-15.642-2.697c-0.614-0.106-1.171-0.323-1.672-0.652-0.509-0.323-0.931-0.725-1.265-1.206-0.342-0.476-0.579-1.008-0.713-1.596-0.14-0.589-0.158-1.187-0.054-1.794v0l0.694-4.025 4.476 0.771-0.694 4.026 15.642 2.697z" fill="#000000" data-fill-palette-color="accent"></path><path d="M134.175 224.701l-0.827-4.294 5.66-1.091-1.377-7.143 4.285-0.826 1.376 7.144 7.622-1.469 0.828 4.294-7.622 1.469 2.816 14.61 7.622-1.469 0.825 4.284-7.622 1.469c-0.579 0.112-1.154 0.104-1.725-0.022-0.563-0.121-1.077-0.336-1.541-0.644-0.464-0.309-0.861-0.705-1.19-1.188-0.322-0.478-0.539-1.013-0.654-1.605v0l-2.815-14.609z" fill="#000000" data-fill-palette-color="accent"></path><path d="M176.238 209.335l-7.901 4.319 9.229 16.884-3.811 2.083-11.326-20.721 3.811-2.083 2.002 3.662c-0.247-0.522-0.392-1.062-0.433-1.621-0.035-0.562 0.028-1.103 0.19-1.621 0.162-0.519 0.419-0.995 0.77-1.429 0.349-0.44 0.785-0.803 1.308-1.089v0l4.064-2.222c0.529-0.289 1.079-0.458 1.649-0.505 0.573-0.057 1.128-0.009 1.665 0.144 0.54 0.158 1.038 0.414 1.495 0.768 0.452 0.357 0.824 0.803 1.117 1.338v0l1.912 3.497-3.829 2.093z" fill="#000000" data-fill-palette-color="accent"></path><path d="M199.803 209.193l-14.071-13.139 2.964-3.174 14.071 13.138 8.31-8.899-14.072-13.138 2.978-3.189 17.261 16.116-2.978 3.189-2.92-2.727c0.37 0.409 0.649 0.873 0.835 1.392 0.182 0.514 0.272 1.038 0.272 1.573 0 0.534-0.097 1.056-0.291 1.564-0.194 0.508-0.48 0.966-0.86 1.373v0l-5.345 5.724c-0.402 0.431-0.869 0.761-1.401 0.99-0.531 0.239-1.073 0.367-1.625 0.387-0.553 0.019-1.104-0.07-1.655-0.267-0.541-0.197-1.032-0.501-1.473-0.913z" fill="#000000" data-fill-palette-color="accent"></path><path d="M211.188 155.904l1.998-4.885 7.424 12.304 14.584-3.732-1.998 4.885-10.303 2.637 5.494 9.119-1.998 4.885-7.777-12.91-13.922 3.584 1.99-4.866 9.645-2.499z" fill="#000000" data-fill-palette-color="accent"></path><path d="M4.492 126.246c0-6.708 5.438-12.146 12.146-12.146 6.708 0 12.146 5.438 12.146 12.146 0 6.708-5.438 12.146-12.146 12.145-6.708 0-12.146-5.438-12.146-12.145z" fill="#000000" data-fill-palette-color="accent"></path><path d="M215.648 126.246c0-6.708 5.438-12.146 12.145-12.146 6.708 0 12.146 5.438 12.146 12.146 0 6.708-5.438 12.146-12.146 12.145-6.708 0-12.146-5.438-12.145-12.145z" fill="#000000" data-fill-palette-color="accent"></path></g><g id="text-1"></g></svg></g></svg></g></svg></g><defs></defs></svg><rect width="395.52" height="143.1971788376945" fill="none" stroke="none" visibility="hidden"></rect></g></svg></g></svg>